<svg width="21" height="23" viewBox="0 0 21 23" fill="none" xmlns="http://www.w3.org/2000/svg">
<path d="M11.853 23L8.99587 23L8.99587 5.75L6.13873 5.75L6.13873 2.875L8.99587 2.875L8.99587 -9.99117e-07L11.853 -7.49338e-07L11.853 2.875L14.7102 2.875L14.7102 5.75L11.853 5.75L11.853 23ZM17.5673 8.625L17.5673 5.75L14.7102 5.75L14.7102 8.625L17.5673 8.625ZM17.5673 8.625L17.5673 11.5L20.4244 11.5L20.4244 8.625L17.5673 8.625ZM3.28158 8.625L3.28158 5.75L6.13873 5.75L6.13873 8.625L3.28158 8.625ZM3.28158 8.625L3.28158 11.5L0.424441 11.5L0.424442 8.625L3.28158 8.625Z" fill="#F7F7F7" fill-opacity="0.8" style="fill:#F7F7F7;fill:color(display-p3 0.9686 0.9686 0.9686);fill-opacity:0.8;"/>
</svg>
