<svg width="13" height="14" viewBox="0 0 13 14" fill="none" xmlns="http://www.w3.org/2000/svg">
<path d="M2.28827 2.09961H1.14404V3.14946H2.28827V2.09961Z" fill="#E6CC00" style="fill:#E6CC00;fill:color(display-p3 0.9020 0.8000 0.0000);fill-opacity:1;"/>
<path d="M2.28827 1.05029H1.14404V2.10014H2.28827V1.05029Z" fill="#E6CC00" style="fill:#E6CC00;fill:color(display-p3 0.9020 0.8000 0.0000);fill-opacity:1;"/>
<path d="M3.4328 1.05029H2.28857V2.10014H3.4328V1.05029Z" fill="#E6CC00" style="fill:#E6CC00;fill:color(display-p3 0.9020 0.8000 0.0000);fill-opacity:1;"/>
<path d="M4.57685 0H3.43262V1.04985H4.57685V0Z" fill="#E6CC00" style="fill:#E6CC00;fill:color(display-p3 0.9020 0.8000 0.0000);fill-opacity:1;"/>
<path d="M5.72089 0H4.57666V1.04985H5.72089V0Z" fill="#E6CC00" style="fill:#E6CC00;fill:color(display-p3 0.9020 0.8000 0.0000);fill-opacity:1;"/>
<path d="M6.86542 0H5.72119V1.04985H6.86542V0Z" fill="#E6CC00" style="fill:#E6CC00;fill:color(display-p3 0.9020 0.8000 0.0000);fill-opacity:1;"/>
<path d="M8.00946 1.05029H6.86523V2.10014H8.00946V1.05029Z" fill="#E6CC00" style="fill:#E6CC00;fill:color(display-p3 0.9020 0.8000 0.0000);fill-opacity:1;"/>
<path d="M9.15399 2.09961H8.00977V3.14946H9.15399V2.09961Z" fill="#E6CC00" style="fill:#E6CC00;fill:color(display-p3 0.9020 0.8000 0.0000);fill-opacity:1;"/>
<path d="M1.14423 2.09961H0V3.14946H1.14423V2.09961Z" fill="#E6CC00" style="fill:#E6CC00;fill:color(display-p3 0.9020 0.8000 0.0000);fill-opacity:1;"/>
<path d="M1.14423 3.1499H0V4.19975H1.14423V3.1499Z" fill="#E6CC00" style="fill:#E6CC00;fill:color(display-p3 0.9020 0.8000 0.0000);fill-opacity:1;"/>
<path d="M10.298 3.1499H9.15381V4.19975H10.298V3.1499Z" fill="#E6CC00" style="fill:#E6CC00;fill:color(display-p3 0.9020 0.8000 0.0000);fill-opacity:1;"/>
<path d="M1.14423 4.19971H0V5.24956H1.14423V4.19971Z" fill="#E6CC00" style="fill:#E6CC00;fill:color(display-p3 0.9020 0.8000 0.0000);fill-opacity:1;"/>
<path d="M10.298 4.19971H9.15381V5.24956H10.298V4.19971Z" fill="#E6CC00" style="fill:#E6CC00;fill:color(display-p3 0.9020 0.8000 0.0000);fill-opacity:1;"/>
<path d="M1.14423 5.24951H0V6.29936H1.14423V5.24951Z" fill="#E6CC00" style="fill:#E6CC00;fill:color(display-p3 0.9020 0.8000 0.0000);fill-opacity:1;"/>
<path d="M10.298 5.24951H9.15381V6.29936H10.298V5.24951Z" fill="#E6CC00" style="fill:#E6CC00;fill:color(display-p3 0.9020 0.8000 0.0000);fill-opacity:1;"/>
<path d="M1.14423 6.29883H0V7.34868H1.14423V6.29883Z" fill="#E6CC00" style="fill:#E6CC00;fill:color(display-p3 0.9020 0.8000 0.0000);fill-opacity:1;"/>
<path d="M10.298 6.29883H9.15381V7.34868H10.298V6.29883Z" fill="#E6CC00" style="fill:#E6CC00;fill:color(display-p3 0.9020 0.8000 0.0000);fill-opacity:1;"/>
<path d="M1.14423 7.34912H0V8.39897H1.14423V7.34912Z" fill="#E6CC00" style="fill:#E6CC00;fill:color(display-p3 0.9020 0.8000 0.0000);fill-opacity:1;"/>
<path d="M6.29316 4.19971H5.14893V5.24956H6.29316V4.19971Z" fill="#E6CC00" style="fill:#E6CC00;fill:color(display-p3 0.9020 0.8000 0.0000);fill-opacity:1;"/>
<path d="M6.29316 5.24951H5.14893V6.29936H6.29316V5.24951Z" fill="#E6CC00" style="fill:#E6CC00;fill:color(display-p3 0.9020 0.8000 0.0000);fill-opacity:1;"/>
<path d="M6.29316 6.29883H5.14893V7.34868H6.29316V6.29883Z" fill="#E6CC00" style="fill:#E6CC00;fill:color(display-p3 0.9020 0.8000 0.0000);fill-opacity:1;"/>
<path d="M5.14911 6.29883H4.00488V7.34868H5.14911V6.29883Z" fill="#E6CC00" style="fill:#E6CC00;fill:color(display-p3 0.9020 0.8000 0.0000);fill-opacity:1;"/>
<path d="M5.14911 7.34912H4.00488V8.39897H5.14911V7.34912Z" fill="#E6CC00" style="fill:#E6CC00;fill:color(display-p3 0.9020 0.8000 0.0000);fill-opacity:1;"/>
<path d="M5.14911 8.39893H4.00488V9.44878H5.14911V8.39893Z" fill="#E6CC00" style="fill:#E6CC00;fill:color(display-p3 0.9020 0.8000 0.0000);fill-opacity:1;"/>
<path d="M10.298 7.34912H9.15381V8.39897H10.298V7.34912Z" fill="#E6CC00" style="fill:#E6CC00;fill:color(display-p3 0.9020 0.8000 0.0000);fill-opacity:1;"/>
<path d="M1.14423 8.39893H0V9.44878H1.14423V8.39893Z" fill="#E6CC00" style="fill:#E6CC00;fill:color(display-p3 0.9020 0.8000 0.0000);fill-opacity:1;"/>
<path d="M10.298 8.39893H9.15381V9.44878H10.298V8.39893Z" fill="#E6CC00" style="fill:#E6CC00;fill:color(display-p3 0.9020 0.8000 0.0000);fill-opacity:1;"/>
<path d="M1.14423 9.44922H0V10.4991H1.14423V9.44922Z" fill="#E6CC00" style="fill:#E6CC00;fill:color(display-p3 0.9020 0.8000 0.0000);fill-opacity:1;"/>
<path d="M10.298 9.44922H9.15381V10.4991H10.298V9.44922Z" fill="#E6CC00" style="fill:#E6CC00;fill:color(display-p3 0.9020 0.8000 0.0000);fill-opacity:1;"/>
<path d="M1.14423 10.4985H0V11.5484H1.14423V10.4985Z" fill="#E6CC00" style="fill:#E6CC00;fill:color(display-p3 0.9020 0.8000 0.0000);fill-opacity:1;"/>
<path d="M2.28827 10.4985H1.14404V11.5484H2.28827V10.4985Z" fill="#E6CC00" style="fill:#E6CC00;fill:color(display-p3 0.9020 0.8000 0.0000);fill-opacity:1;"/>
<path d="M2.28827 11.5488H1.14404V12.5987H2.28827V11.5488Z" fill="#E6CC00" style="fill:#E6CC00;fill:color(display-p3 0.9020 0.8000 0.0000);fill-opacity:1;"/>
<path d="M3.4328 11.5488H2.28857V12.5987H3.4328V11.5488Z" fill="#E6CC00" style="fill:#E6CC00;fill:color(display-p3 0.9020 0.8000 0.0000);fill-opacity:1;"/>
<path d="M4.57685 12.5981H3.43262V13.648H4.57685V12.5981Z" fill="#E6CC00" style="fill:#E6CC00;fill:color(display-p3 0.9020 0.8000 0.0000);fill-opacity:1;"/>
<path d="M5.72089 12.5981H4.57666V13.648H5.72089V12.5981Z" fill="#E6CC00" style="fill:#E6CC00;fill:color(display-p3 0.9020 0.8000 0.0000);fill-opacity:1;"/>
<path d="M6.86542 12.5981H5.72119V13.648H6.86542V12.5981Z" fill="#E6CC00" style="fill:#E6CC00;fill:color(display-p3 0.9020 0.8000 0.0000);fill-opacity:1;"/>
<path d="M8.00946 0H6.86523V1.04985H8.00946V0Z" fill="#E6CC00" style="fill:#E6CC00;fill:color(display-p3 0.9020 0.8000 0.0000);fill-opacity:1;"/>
<path d="M8.00946 12.5981H6.86523V13.648H8.00946V12.5981Z" fill="#E6CC00" style="fill:#E6CC00;fill:color(display-p3 0.9020 0.8000 0.0000);fill-opacity:1;"/>
<path d="M9.15351 12.5981H8.00928V13.648H9.15351V12.5981Z" fill="#E6CC00" style="fill:#E6CC00;fill:color(display-p3 0.9020 0.8000 0.0000);fill-opacity:1;"/>
<path d="M3.4328 0H2.28857V1.04985H3.4328V0Z" fill="#E6CC00" style="fill:#E6CC00;fill:color(display-p3 0.9020 0.8000 0.0000);fill-opacity:1;"/>
<path d="M3.4328 12.5981H2.28857V13.648H3.4328V12.5981Z" fill="#E6CC00" style="fill:#E6CC00;fill:color(display-p3 0.9020 0.8000 0.0000);fill-opacity:1;"/>
<path d="M8.00946 11.5488H6.86523V12.5987H8.00946V11.5488Z" fill="#E6CC00" style="fill:#E6CC00;fill:color(display-p3 0.9020 0.8000 0.0000);fill-opacity:1;"/>
<path d="M9.15399 10.4985H8.00977V11.5484H9.15399V10.4985Z" fill="#E6CC00" style="fill:#E6CC00;fill:color(display-p3 0.9020 0.8000 0.0000);fill-opacity:1;"/>
<path d="M9.15351 0H8.00928V1.04985H9.15351V0Z" fill="#E6CC00" style="fill:#E6CC00;fill:color(display-p3 0.9020 0.8000 0.0000);fill-opacity:1;"/>
<path d="M11.4421 1.05029H10.2979V2.10014H11.4421V1.05029Z" fill="#E6CC00" style="fill:#E6CC00;fill:color(display-p3 0.9020 0.8000 0.0000);fill-opacity:1;"/>
<path d="M12.5866 2.09961H11.4424V3.14946H12.5866V2.09961Z" fill="#E6CC00" style="fill:#E6CC00;fill:color(display-p3 0.9020 0.8000 0.0000);fill-opacity:1;"/>
<path d="M12.5866 3.1499H11.4424V4.19975H12.5866V3.1499Z" fill="#E6CC00" style="fill:#E6CC00;fill:color(display-p3 0.9020 0.8000 0.0000);fill-opacity:1;"/>
<path d="M12.5866 4.19971H11.4424V5.24956H12.5866V4.19971Z" fill="#E6CC00" style="fill:#E6CC00;fill:color(display-p3 0.9020 0.8000 0.0000);fill-opacity:1;"/>
<path d="M12.5866 5.24951H11.4424V6.29936H12.5866V5.24951Z" fill="#E6CC00" style="fill:#E6CC00;fill:color(display-p3 0.9020 0.8000 0.0000);fill-opacity:1;"/>
<path d="M12.5866 6.29883H11.4424V7.34868H12.5866V6.29883Z" fill="#E6CC00" style="fill:#E6CC00;fill:color(display-p3 0.9020 0.8000 0.0000);fill-opacity:1;"/>
<path d="M12.5866 7.34912H11.4424V8.39897H12.5866V7.34912Z" fill="#E6CC00" style="fill:#E6CC00;fill:color(display-p3 0.9020 0.8000 0.0000);fill-opacity:1;"/>
<path d="M12.5866 8.39893H11.4424V9.44878H12.5866V8.39893Z" fill="#E6CC00" style="fill:#E6CC00;fill:color(display-p3 0.9020 0.8000 0.0000);fill-opacity:1;"/>
<path d="M12.5866 9.44922H11.4424V10.4991H12.5866V9.44922Z" fill="#E6CC00" style="fill:#E6CC00;fill:color(display-p3 0.9020 0.8000 0.0000);fill-opacity:1;"/>
<path d="M12.5866 10.4985H11.4424V11.5484H12.5866V10.4985Z" fill="#E6CC00" style="fill:#E6CC00;fill:color(display-p3 0.9020 0.8000 0.0000);fill-opacity:1;"/>
<path d="M10.298 0H9.15381V1.04985H10.298V0Z" fill="#E6CC00" style="fill:#E6CC00;fill:color(display-p3 0.9020 0.8000 0.0000);fill-opacity:1;"/>
<path d="M10.298 12.5981H9.15381V13.648H10.298V12.5981Z" fill="#E6CC00" style="fill:#E6CC00;fill:color(display-p3 0.9020 0.8000 0.0000);fill-opacity:1;"/>
<path d="M11.4421 11.5488H10.2979V12.5987H11.4421V11.5488Z" fill="#E6CC00" style="fill:#E6CC00;fill:color(display-p3 0.9020 0.8000 0.0000);fill-opacity:1;"/>
</svg>
