<svg width="20" height="20" viewBox="0 0 20 20" fill="none" xmlns="http://www.w3.org/2000/svg">
<rect width="20" height="20" rx="10" fill="#1A2834" style="fill:#1A2834;fill:color(display-p3 0.1020 0.1569 0.2039);fill-opacity:1;"/>
<path d="M13 5H12V6H11V7H10V8H9V9H8V10H7V11H6V12H5V15H8V14H9V13H10V12H11V11H12V10H13V9H14V8H15V7H14V6H13V5ZM13 9H12V10H11V11H10V12H9V13H8V12H7V11H8V10H9V9H10V8H11V7H12V8H13V9ZM7 12H6V14H8V13H7V12Z" fill="#F7F7F7" style="fill:#F7F7F7;fill:color(display-p3 0.9686 0.9686 0.9686);fill-opacity:1;"/>
</svg>
