<svg width="42" height="37" viewBox="0 0 42 37" fill="none" xmlns="http://www.w3.org/2000/svg">
<path d="M0 3L3 0H39L42 3V11L40 13V24L42 26V34L39 37H3L0 34V26L2 24V13L0 11V3Z" fill="#E6CC00" style="fill:#E6CC00;fill:color(display-p3 0.9020 0.8000 0.0000);fill-opacity:1;"/>
<path d="M39.6464 12.6464L39.5 12.7929V13V24V24.2071L39.6464 24.3536L41.5 26.2071V33.7929L38.7929 36.5H3.20711L0.5 33.7929V26.2071L2.35355 24.3536L2.5 24.2071V24V13V12.7929L2.35355 12.6464L0.5 10.7929V3.20711L3.20711 0.5H38.7929L41.5 3.20711V10.7929L39.6464 12.6464Z" stroke="#F7F7F7" stroke-opacity="0.6" style="stroke:#F7F7F7;stroke:color(display-p3 0.9686 0.9686 0.9686);stroke-opacity:0.6;"/>
<path d="M41 14L42 13V24L41 23V14Z" fill="#E6CC00" style="fill:#E6CC00;fill:color(display-p3 0.9020 0.8000 0.0000);fill-opacity:1;"/>
<path d="M1 23L0 24L9.61651e-07 13L1 14L1 23Z" fill="#E6CC00" style="fill:#E6CC00;fill:color(display-p3 0.9020 0.8000 0.0000);fill-opacity:1;"/>
</svg>
