<svg width="24" height="24" viewBox="0 0 24 24" fill="none" xmlns="http://www.w3.org/2000/svg">
<g clip-path="url(#clip0_32_157)">
<path d="M22.2806 1.71935C22.2109 1.64962 22.1282 1.5943 22.0371 1.55656C21.9461 1.51882 21.8485 1.49939 21.7499 1.49939C21.6514 1.49939 21.5538 1.51882 21.4627 1.55656C21.3717 1.5943 21.289 1.64962 21.2193 1.71935L16.3068 6.63279L15.8034 6.12842C15.2401 5.56681 14.4772 5.25143 13.6818 5.25143C12.8864 5.25143 12.1235 5.56681 11.5602 6.12842L9.37493 8.31467L8.78055 7.71935C8.63982 7.57862 8.44895 7.49956 8.24993 7.49956C8.05091 7.49956 7.86003 7.57862 7.7193 7.71935C7.57857 7.86009 7.49951 8.05096 7.49951 8.24998C7.49951 8.449 7.57857 8.63987 7.7193 8.78061L8.31462 9.37498L6.12837 11.5603C5.84972 11.8389 5.62868 12.1696 5.47787 12.5336C5.32706 12.8977 5.24944 13.2878 5.24944 13.6819C5.24944 14.0759 5.32706 14.466 5.47787 14.8301C5.62868 15.1941 5.84972 15.5248 6.12837 15.8034L6.63274 16.3069L1.7193 21.2194C1.64962 21.289 1.59435 21.3718 1.55663 21.4628C1.51892 21.5539 1.49951 21.6514 1.49951 21.75C1.49951 21.8485 1.51892 21.9461 1.55663 22.0372C1.59435 22.1282 1.64962 22.2109 1.7193 22.2806C1.86003 22.4213 2.05091 22.5004 2.24993 22.5004C2.34847 22.5004 2.44606 22.481 2.5371 22.4433C2.62815 22.4056 2.71087 22.3503 2.78055 22.2806L7.69305 17.3672L8.19649 17.8715C8.47508 18.1502 8.80582 18.3712 9.16984 18.522C9.53387 18.6728 9.92403 18.7505 10.3181 18.7505C10.7121 18.7505 11.1022 18.6728 11.4663 18.522C11.8303 18.3712 12.161 18.1502 12.4396 17.8715L14.6249 15.6853L15.2193 16.2806C15.289 16.3503 15.3717 16.4056 15.4628 16.4433C15.5538 16.481 15.6514 16.5004 15.7499 16.5004C15.8485 16.5004 15.9461 16.481 16.0371 16.4433C16.1281 16.4056 16.2109 16.3503 16.2806 16.2806C16.3502 16.2109 16.4055 16.1282 16.4432 16.0372C16.4809 15.9461 16.5003 15.8485 16.5003 15.75C16.5003 15.6514 16.4809 15.5539 16.4432 15.4628C16.4055 15.3718 16.3502 15.289 16.2806 15.2194L15.6852 14.625L17.8715 12.4397C18.1501 12.1611 18.3712 11.8303 18.522 11.4663C18.6728 11.1023 18.7504 10.7121 18.7504 10.3181C18.7504 9.92408 18.6728 9.53392 18.522 9.1699C18.3712 8.80587 18.1501 8.47513 17.8715 8.19654L17.3671 7.6931L22.2806 2.7806C22.3503 2.71095 22.4056 2.62823 22.4433 2.53718C22.4811 2.44614 22.5005 2.34854 22.5005 2.24998C22.5005 2.15142 22.4811 2.05382 22.4433 1.96277C22.4056 1.87173 22.3503 1.78901 22.2806 1.71935ZM11.3784 16.8131C11.0971 17.0942 10.7157 17.2521 10.3181 17.2521C9.9204 17.2521 9.53902 17.0942 9.25774 16.8131L7.18962 14.7422C6.90852 14.4609 6.75062 14.0795 6.75062 13.6819C6.75062 13.2842 6.90852 12.9028 7.18962 12.6215L9.37493 10.4353L13.5646 14.625L11.3784 16.8131ZM16.8102 11.3812L14.6249 13.5647L10.4352 9.37498L12.6215 7.18967C12.9028 6.90858 13.2842 6.75068 13.6818 6.75068C14.0795 6.75068 14.4608 6.90858 14.7421 7.18967L16.8102 9.25217C16.9503 9.39155 17.0614 9.55721 17.1372 9.73965C17.213 9.9221 17.2521 10.1177 17.2521 10.3153C17.2521 10.5129 17.213 10.7085 17.1372 10.8909C17.0614 11.0734 16.9503 11.239 16.8102 11.3784V11.3812ZM8.30337 3.28123C8.22877 3.09649 8.23062 2.88968 8.30851 2.70631C8.3864 2.52293 8.53394 2.37801 8.71868 2.30342C8.90342 2.22882 9.11022 2.23068 9.2936 2.30856C9.47697 2.38645 9.6219 2.53399 9.69649 2.71873L10.4465 4.59373C10.4834 4.6852 10.502 4.78306 10.5011 4.8817C10.5002 4.98035 10.4799 5.07785 10.4413 5.16865C10.4028 5.25945 10.3467 5.34176 10.2763 5.41089C10.206 5.48002 10.1227 5.53461 10.0312 5.57154C9.9397 5.60848 9.84185 5.62703 9.74321 5.62615C9.64456 5.62527 9.54706 5.60496 9.45626 5.5664C9.36546 5.52783 9.28315 5.47176 9.21402 5.40138C9.14489 5.33101 9.0903 5.2477 9.05337 5.15623L8.30337 3.28123ZM2.30337 8.71873C2.34017 8.62716 2.39469 8.54375 2.46379 8.47328C2.53289 8.40282 2.61522 8.34669 2.70606 8.3081C2.7969 8.26952 2.89446 8.24925 2.99315 8.24844C3.09184 8.24764 3.18972 8.26632 3.28118 8.30342L5.15618 9.05342C5.24765 9.09035 5.33096 9.14494 5.40133 9.21407C5.47171 9.2832 5.52778 9.36551 5.56635 9.45631C5.60491 9.54711 5.62522 9.64461 5.6261 9.74326C5.62698 9.8419 5.60843 9.93976 5.57149 10.0312C5.53456 10.1227 5.47997 10.206 5.41084 10.2764C5.34171 10.3468 5.2594 10.4028 5.1686 10.4414C5.0778 10.48 4.9803 10.5003 4.88165 10.5011C4.78301 10.502 4.68515 10.4835 4.59368 10.4465L2.71868 9.69654C2.6271 9.65974 2.54369 9.60522 2.47323 9.53612C2.40277 9.46702 2.34663 9.38468 2.30805 9.29384C2.26947 9.20301 2.2492 9.10544 2.24839 9.00675C2.24759 8.90806 2.26627 8.81019 2.30337 8.71873ZM21.6965 15.2812C21.6599 15.3727 21.6057 15.4561 21.5369 15.5266C21.4682 15.5972 21.3862 15.6534 21.2956 15.6923C21.2051 15.7311 21.1078 15.7517 21.0093 15.7529C20.9107 15.7541 20.813 15.7359 20.7215 15.6994L18.8465 14.9494C18.7548 14.9126 18.6713 14.8582 18.6007 14.7891C18.5301 14.7201 18.4737 14.6378 18.4349 14.547C18.3961 14.4562 18.3755 14.3587 18.3744 14.2599C18.3733 14.1612 18.3916 14.0632 18.4284 13.9715C18.4651 13.8799 18.5196 13.7964 18.5886 13.7257C18.6576 13.6551 18.7399 13.5988 18.8307 13.56C18.9215 13.5211 19.019 13.5006 19.1178 13.4995C19.2165 13.4983 19.3145 13.5167 19.4062 13.5534L21.2812 14.3034C21.3728 14.3402 21.4562 14.3947 21.5266 14.4638C21.5971 14.5329 21.6532 14.6153 21.6918 14.7061C21.7304 14.797 21.7507 14.8945 21.7515 14.9932C21.7523 15.0919 21.7336 15.1898 21.6965 15.2812ZM15.6965 20.7244C15.7331 20.8158 15.7512 20.9136 15.75 21.0121C15.7488 21.1106 15.7282 21.2079 15.6894 21.2985C15.6505 21.389 15.5943 21.471 15.5237 21.5398C15.4532 21.6086 15.3698 21.6628 15.2784 21.6994C15.1869 21.7359 15.0891 21.7541 14.9906 21.7529C14.8921 21.7517 14.7948 21.731 14.7043 21.6922C14.6137 21.6534 14.5317 21.5971 14.4629 21.5266C14.3942 21.4561 14.3399 21.3727 14.3034 21.2812L13.5534 19.4062C13.4788 19.2215 13.4806 19.0147 13.5585 18.8313C13.6364 18.6479 13.7839 18.503 13.9687 18.4284C14.1534 18.3538 14.3602 18.3557 14.5436 18.4336C14.727 18.5114 14.8719 18.659 14.9465 18.8437L15.6965 20.7244Z" fill="#E6CC00" style="fill:#E6CC00;fill:color(display-p3 0.9020 0.8000 0.0000);fill-opacity:1;"/>
</g>
<defs>
<clipPath id="clip0_32_157">
<rect width="24" height="24" fill="white" style="fill:white;fill-opacity:1;"/>
</clipPath>
</defs>
</svg>
