<svg width="440" height="92" viewBox="0 0 440 92" fill="none" xmlns="http://www.w3.org/2000/svg">
<path d="M285.617 -2.40099e-05H282.315H279.012H275.711H272.409H269.107H265.805H262.503H259.201H255.899H252.597H249.295H245.993V3.50967V7.01936V10.529V14.0387V17.5484H242.691V21.0581V24.5678V28.0775V31.5872V35.0969V38.6066V42.1163H239.39V38.6066H236.088V35.0969H232.786V31.5872H229.484V28.0775H226.182V24.5678H222.88V21.0581H219.578V17.5484H216.276V14.0387H212.974V10.529H209.672V7.01936V3.50967H206.37V-2.40099e-05H203.068H199.767H196.464H193.163H189.861H186.559H183.257H179.955H176.653H173.351H170.049H166.747H163.445V3.50967V7.01936V10.529V14.0387H160.143V17.5484V21.0581V24.5678V28.0775V31.5872H156.842V35.0969V38.6066V42.1163V45.626V49.1357H153.54V52.6453V56.155V59.6647V63.1744V66.6841H150.237V70.1938V73.7035V77.2132H146.936V80.7229V84.2326V87.7423V91.252H150.237H153.54H156.842H160.143H163.445H166.747H170.049H173.351H176.653H179.955H183.257H186.559H189.861H193.163V87.7423V84.2326H196.464V80.7229V77.2132V73.7035H199.767V70.1938V66.6841V63.1744V59.6647H203.068V63.1744H206.37V66.6841H209.672V70.1938H212.974V73.7035H216.276V77.2132H219.578V80.7229H222.88V84.2326H226.182V87.7423H229.484V91.252H232.786H236.088H239.39H242.691H245.993H249.295H252.597H255.899H259.201H262.503H265.805H269.107H272.409H275.711V87.7423V84.2326V80.7229H279.012V77.2132V73.7035V70.1938H282.315V66.6841V63.1744V59.6647V56.155V52.6453H285.617V49.1357V45.626V42.1163V38.6066V35.0969H288.918V31.5872V28.0775V24.5678V21.0581V17.5484H292.221V14.0387V10.529V7.01936V3.50967V-2.40099e-05H288.918H285.617Z" fill="#E6CC00" style="fill:#E6CC00;fill:color(display-p3 0.9020 0.8000 0.0000);fill-opacity:1;"/>
<path d="M435.854 -2.40099e-05H432.552H429.25H425.948H422.646H419.344H416.042H412.741H409.439H406.137H402.835H399.533H396.231H392.929V3.50967V7.01936V10.529V14.0387V17.5484H389.627V21.0581V24.5678V28.0775V31.5872V35.0969V38.6066V42.1163H386.325V38.6066H383.023V35.0969H379.721V31.5872H376.42V28.0775H373.117V24.5678H369.816V21.0581H366.514V17.5484H363.212V14.0387H359.91V10.529H356.608V7.01936V3.50967H353.306V-2.40099e-05H350.004H346.702H343.4H340.098H336.796H333.494H330.193H326.891H323.589H320.287H316.985H313.683H310.381V3.50967V7.01936V10.529V14.0387H307.079V17.5484V21.0581V24.5678V28.0775V31.5872H303.777V35.0969V38.6066V42.1163V45.626V49.1357H300.475V52.6453V56.155V59.6647V63.1744V66.6841H297.173V70.1938V73.7035V77.2132H293.871V80.7229V84.2326V87.7423V91.252H297.173H300.475H303.777H307.079H310.381H313.683H316.985H320.287H323.589H326.891H330.193H333.494H336.796H340.098V87.7423V84.2326H343.4V80.7229V77.2132V73.7035H346.702V70.1938V66.6841V63.1744V59.6647H350.004V63.1744H353.306V66.6841H356.608V70.1938H359.91V73.7035H363.212V77.2132H366.514V80.7229H369.816V84.2326H373.117V87.7423H376.42V91.252H379.721H383.023H386.325H389.627H392.929H396.231H399.533H402.835H406.137H409.439H412.741H416.042H419.344H422.646V87.7423V84.2326V80.7229H425.948V77.2132V73.7035V70.1938H429.25V66.6841V63.1744V59.6647V56.155V52.6453H432.552V49.1357V45.626V42.1163V38.6066V35.0969H435.854V31.5872V28.0775V24.5678V21.0581V17.5484H439.156V14.0387V10.529V7.01936V3.50967V-2.40099e-05H435.854Z" fill="#E6CC00" style="fill:#E6CC00;fill:color(display-p3 0.9020 0.8000 0.0000);fill-opacity:1;"/>
<path d="M138.681 -2.40099e-05H135.379H132.077H128.775H125.473H122.171H118.869H115.567H112.266H108.963H105.662H102.36H99.0579H95.7557H92.4539V3.50967V7.01936H95.7557V10.529V14.0387H99.0579V17.5484V21.0581H102.36V24.5678V28.0775H105.662V31.5872V35.0969H108.963V38.6066H105.662H102.36H99.0579H95.7557H92.4539V42.1163V45.626V49.1357V52.6453H95.7557V56.155V59.6647H99.0579V63.1744V66.6841H95.7557V63.1744H92.4539V59.6647H89.1521V56.155H85.8499V52.6453H82.5481V49.1357H79.2463V45.626H75.9444V42.1163H72.6422V38.6066H69.3404V35.0969H66.0386V31.5872H62.7364V28.0775H66.0386H69.3404H72.6422H75.9444H79.2463V24.5678H75.9444V21.0581H72.6422V17.5484H69.3404V14.0387H66.0386V10.529H62.7364V7.01936H59.4346V3.50967H56.1328V-2.40099e-05H52.831H49.5288H46.227H42.9251H39.6229H36.3211H33.0193H29.7175H26.4153H23.1135H19.8117H16.5095H13.2076V3.50967V7.01936V10.529V14.0387H9.90583V17.5484V21.0581V24.5678V28.0775V31.5872H6.60402V35.0969V38.6066V42.1163V45.626V49.1357H3.30181V52.6453V56.155V59.6647V63.1744V66.6841H0V70.1938V73.7035V77.2132V80.7229V84.2326V87.7423V91.252H3.30181H6.60402H9.90583H13.2076H16.5095H19.8117H23.1135H26.4153H29.7175H33.0193H36.3211H39.6229H42.9251H46.227V87.7423V84.2326V80.7229V77.2132V73.7035H49.5288V70.1938V66.6841V63.1744V59.6647H52.831V63.1744H56.1328V66.6841H59.4346V70.1938H62.7364V73.7035H66.0386V77.2132H69.3404V80.7229H72.6422V84.2326H75.9444V87.7423H79.2463V91.252H82.5481H85.8499H89.1521H92.4539H95.7557H99.0579H102.36H105.662H108.963H112.266H115.567H118.869H122.171H125.473H128.775H132.077V87.7423V84.2326V80.7229V77.2132V73.7035H135.379V70.1938V66.6841V63.1744V59.6647V56.155H138.681V52.6453V49.1357V45.626V42.1163V38.6066H141.983V35.0969V31.5872V28.0775V24.5678V21.0581H145.285V17.5484V14.0387V10.529V7.01936V3.50967V-2.40099e-05H141.983H138.681Z" fill="#E6CC00" style="fill:#E6CC00;fill:color(display-p3 0.9020 0.8000 0.0000);fill-opacity:1;"/>
</svg>
