<svg width="60" height="106" viewBox="0 0 60 106" fill="none" xmlns="http://www.w3.org/2000/svg">
<path d="M13.6703 0.741943H7.13806V7.2742H13.6703V0.741943Z" fill="#E6CC00" style="fill:#E6CC00;fill:color(display-p3 0.9020 0.8000 0.0000);fill-opacity:1;"/>
<path d="M20.2007 0.741943H13.6684V7.2742H20.2007V0.741943Z" fill="#E6CC00" style="fill:#E6CC00;fill:color(display-p3 0.9020 0.8000 0.0000);fill-opacity:1;"/>
<path d="M26.7348 0.741943H20.2026V7.2742H26.7348V0.741943Z" fill="#E6CC00" style="fill:#E6CC00;fill:color(display-p3 0.9020 0.8000 0.0000);fill-opacity:1;"/>
<path d="M33.2652 0.741943H26.7329V7.2742H33.2652V0.741943Z" fill="#E6CC00" style="fill:#E6CC00;fill:color(display-p3 0.9020 0.8000 0.0000);fill-opacity:1;"/>
<path d="M39.7993 0.741943H33.2671V7.2742H39.7993V0.741943Z" fill="#E6CC00" style="fill:#E6CC00;fill:color(display-p3 0.9020 0.8000 0.0000);fill-opacity:1;"/>
<path d="M46.3297 0.741943H39.7974V7.2742H46.3297V0.741943Z" fill="#E6CC00" style="fill:#E6CC00;fill:color(display-p3 0.9020 0.8000 0.0000);fill-opacity:1;"/>
<path d="M52.8639 0.741943H46.3316V7.2742H52.8639V0.741943Z" fill="#E6CC00" style="fill:#E6CC00;fill:color(display-p3 0.9020 0.8000 0.0000);fill-opacity:1;"/>
<path d="M13.6703 92.1935H7.13806V98.7258H13.6703V92.1935Z" fill="#E6CC00" style="fill:#E6CC00;fill:color(display-p3 0.9020 0.8000 0.0000);fill-opacity:1;"/>
<path d="M20.2007 92.1935H13.6684V98.7258H20.2007V92.1935Z" fill="#E6CC00" style="fill:#E6CC00;fill:color(display-p3 0.9020 0.8000 0.0000);fill-opacity:1;"/>
<path d="M26.7348 92.1935H20.2026V98.7258H26.7348V92.1935Z" fill="#E6CC00" style="fill:#E6CC00;fill:color(display-p3 0.9020 0.8000 0.0000);fill-opacity:1;"/>
<path d="M33.2652 92.1935H26.7329V98.7258H33.2652V92.1935Z" fill="#E6CC00" style="fill:#E6CC00;fill:color(display-p3 0.9020 0.8000 0.0000);fill-opacity:1;"/>
<path d="M39.7993 92.1935H33.2671V98.7258H39.7993V92.1935Z" fill="#E6CC00" style="fill:#E6CC00;fill:color(display-p3 0.9020 0.8000 0.0000);fill-opacity:1;"/>
<path d="M46.3297 92.1935H39.7974V98.7258H46.3297V92.1935Z" fill="#E6CC00" style="fill:#E6CC00;fill:color(display-p3 0.9020 0.8000 0.0000);fill-opacity:1;"/>
<path d="M20.2007 98.7258H13.6684V105.258H20.2007V98.7258Z" fill="#E6CC00" style="fill:#E6CC00;fill:color(display-p3 0.9020 0.8000 0.0000);fill-opacity:1;"/>
<path d="M26.7348 98.7258H20.2026V105.258H26.7348V98.7258Z" fill="#E6CC00" style="fill:#E6CC00;fill:color(display-p3 0.9020 0.8000 0.0000);fill-opacity:1;"/>
<path d="M39.7993 98.7258H33.2671V105.258H39.7993V98.7258Z" fill="#E6CC00" style="fill:#E6CC00;fill:color(display-p3 0.9020 0.8000 0.0000);fill-opacity:1;"/>
<path d="M46.3297 98.7258H39.7974V105.258H46.3297V98.7258Z" fill="#E6CC00" style="fill:#E6CC00;fill:color(display-p3 0.9020 0.8000 0.0000);fill-opacity:1;"/>
<path d="M52.8639 92.1935H46.3316V98.7258H52.8639V92.1935Z" fill="#E6CC00" style="fill:#E6CC00;fill:color(display-p3 0.9020 0.8000 0.0000);fill-opacity:1;"/>
<path d="M20.2007 7.27417H13.6684V13.8064H20.2007V7.27417Z" fill="#E6CC00" style="fill:#E6CC00;fill:color(display-p3 0.9020 0.8000 0.0000);fill-opacity:1;"/>
<path d="M26.7348 7.27417H20.2026V13.8064H26.7348V7.27417Z" fill="#E6CC00" style="fill:#E6CC00;fill:color(display-p3 0.9020 0.8000 0.0000);fill-opacity:1;"/>
<path d="M33.2652 7.27417H26.7329V13.8064H33.2652V7.27417Z" fill="#E6CC00" style="fill:#E6CC00;fill:color(display-p3 0.9020 0.8000 0.0000);fill-opacity:1;"/>
<path d="M39.7993 7.27417H33.2671V13.8064H39.7993V7.27417Z" fill="#E6CC00" style="fill:#E6CC00;fill:color(display-p3 0.9020 0.8000 0.0000);fill-opacity:1;"/>
<path d="M46.3297 7.27417H39.7974V13.8064H46.3297V7.27417Z" fill="#E6CC00" style="fill:#E6CC00;fill:color(display-p3 0.9020 0.8000 0.0000);fill-opacity:1;"/>
<path d="M52.8639 7.27417H46.3316V13.8064H52.8639V7.27417Z" fill="#E6CC00" style="fill:#E6CC00;fill:color(display-p3 0.9020 0.8000 0.0000);fill-opacity:1;"/>
<path d="M59.3942 7.27417H52.8619V13.8064H59.3942V7.27417Z" fill="#E6CC00" style="fill:#E6CC00;fill:color(display-p3 0.9020 0.8000 0.0000);fill-opacity:1;"/>
<path d="M20.2007 13.8065H13.6684V20.3387H20.2007V13.8065Z" fill="#E6CC00" style="fill:#E6CC00;fill:color(display-p3 0.9020 0.8000 0.0000);fill-opacity:1;"/>
<path d="M26.7348 13.8065H20.2026V20.3387H26.7348V13.8065Z" fill="#E6CC00" style="fill:#E6CC00;fill:color(display-p3 0.9020 0.8000 0.0000);fill-opacity:1;"/>
<path d="M33.2652 13.8065H26.7329V20.3387H33.2652V13.8065Z" fill="#E6CC00" style="fill:#E6CC00;fill:color(display-p3 0.9020 0.8000 0.0000);fill-opacity:1;"/>
<path d="M39.7993 13.8065H33.2671V20.3387H39.7993V13.8065Z" fill="#E6CC00" style="fill:#E6CC00;fill:color(display-p3 0.9020 0.8000 0.0000);fill-opacity:1;"/>
<path d="M46.3297 13.8065H39.7974V20.3387H46.3297V13.8065Z" fill="#E6CC00" style="fill:#E6CC00;fill:color(display-p3 0.9020 0.8000 0.0000);fill-opacity:1;"/>
<path d="M52.8639 13.8065H46.3316V20.3387H52.8639V13.8065Z" fill="#E6CC00" style="fill:#E6CC00;fill:color(display-p3 0.9020 0.8000 0.0000);fill-opacity:1;"/>
<path d="M59.3942 13.8065H52.8619V20.3387H59.3942V13.8065Z" fill="#E6CC00" style="fill:#E6CC00;fill:color(display-p3 0.9020 0.8000 0.0000);fill-opacity:1;"/>
<path d="M20.2007 20.3387H13.6684V26.8709H20.2007V20.3387Z" fill="#E6CC00" style="fill:#E6CC00;fill:color(display-p3 0.9020 0.8000 0.0000);fill-opacity:1;"/>
<path d="M26.7348 20.3387H20.2026V26.8709H26.7348V20.3387Z" fill="#E6CC00" style="fill:#E6CC00;fill:color(display-p3 0.9020 0.8000 0.0000);fill-opacity:1;"/>
<path d="M33.2652 20.3387H26.7329V26.8709H33.2652V20.3387Z" fill="#E6CC00" style="fill:#E6CC00;fill:color(display-p3 0.9020 0.8000 0.0000);fill-opacity:1;"/>
<path d="M39.7993 20.3387H33.2671V26.8709H39.7993V20.3387Z" fill="#E6CC00" style="fill:#E6CC00;fill:color(display-p3 0.9020 0.8000 0.0000);fill-opacity:1;"/>
<path d="M46.3297 20.3387H39.7974V26.8709H46.3297V20.3387Z" fill="#E6CC00" style="fill:#E6CC00;fill:color(display-p3 0.9020 0.8000 0.0000);fill-opacity:1;"/>
<path d="M52.8639 20.3387H46.3316V26.8709H52.8639V20.3387Z" fill="#E6CC00" style="fill:#E6CC00;fill:color(display-p3 0.9020 0.8000 0.0000);fill-opacity:1;"/>
<path d="M59.3942 20.3387H52.8619V26.8709H59.3942V20.3387Z" fill="#E6CC00" style="fill:#E6CC00;fill:color(display-p3 0.9020 0.8000 0.0000);fill-opacity:1;"/>
<path d="M20.2007 26.871H13.6684V33.4032H20.2007V26.871Z" fill="#E6CC00" style="fill:#E6CC00;fill:color(display-p3 0.9020 0.8000 0.0000);fill-opacity:1;"/>
<path d="M13.6703 7.27417H7.13806V13.8064H13.6703V7.27417Z" fill="#E6CC00" style="fill:#E6CC00;fill:color(display-p3 0.9020 0.8000 0.0000);fill-opacity:1;"/>
<path d="M13.6703 13.8065H7.13806V20.3387H13.6703V13.8065Z" fill="#E6CC00" style="fill:#E6CC00;fill:color(display-p3 0.9020 0.8000 0.0000);fill-opacity:1;"/>
<path d="M13.6703 20.3387H7.13806V26.8709H13.6703V20.3387Z" fill="#E6CC00" style="fill:#E6CC00;fill:color(display-p3 0.9020 0.8000 0.0000);fill-opacity:1;"/>
<path d="M13.6703 26.871H7.13806V33.4032H13.6703V26.871Z" fill="#E6CC00" style="fill:#E6CC00;fill:color(display-p3 0.9020 0.8000 0.0000);fill-opacity:1;"/>
<path d="M7.13614 7.27417H0.603882V13.8064H7.13614V7.27417Z" fill="#E6CC00" style="fill:#E6CC00;fill:color(display-p3 0.9020 0.8000 0.0000);fill-opacity:1;"/>
<path d="M7.13614 13.8065H0.603882V20.3387H7.13614V13.8065Z" fill="#E6CC00" style="fill:#E6CC00;fill:color(display-p3 0.9020 0.8000 0.0000);fill-opacity:1;"/>
<path d="M7.13614 20.3387H0.603882V26.8709H7.13614V20.3387Z" fill="#E6CC00" style="fill:#E6CC00;fill:color(display-p3 0.9020 0.8000 0.0000);fill-opacity:1;"/>
<path d="M7.13614 26.871H0.603882V33.4032H7.13614V26.871Z" fill="#E6CC00" style="fill:#E6CC00;fill:color(display-p3 0.9020 0.8000 0.0000);fill-opacity:1;"/>
<path d="M7.13614 33.4032H0.603882V39.9355H7.13614V33.4032Z" fill="#E6CC00" style="fill:#E6CC00;fill:color(display-p3 0.9020 0.8000 0.0000);fill-opacity:1;"/>
<path d="M7.13614 39.9355H0.603882V46.4677H7.13614V39.9355Z" fill="#E6CC00" style="fill:#E6CC00;fill:color(display-p3 0.9020 0.8000 0.0000);fill-opacity:1;"/>
<path d="M7.13614 46.4678H0.603882V53H7.13614V46.4678Z" fill="#E6CC00" style="fill:#E6CC00;fill:color(display-p3 0.9020 0.8000 0.0000);fill-opacity:1;"/>
<path d="M7.13614 53H0.603882V59.5323H7.13614V53Z" fill="#E6CC00" style="fill:#E6CC00;fill:color(display-p3 0.9020 0.8000 0.0000);fill-opacity:1;"/>
<path d="M7.13614 59.5322H0.603882V66.0645H7.13614V59.5322Z" fill="#E6CC00" style="fill:#E6CC00;fill:color(display-p3 0.9020 0.8000 0.0000);fill-opacity:1;"/>
<path d="M7.13614 66.0645H0.603882V72.5968H7.13614V66.0645Z" fill="#E6CC00" style="fill:#E6CC00;fill:color(display-p3 0.9020 0.8000 0.0000);fill-opacity:1;"/>
<path d="M7.13614 72.5968H0.603882V79.1291H7.13614V72.5968Z" fill="#E6CC00" style="fill:#E6CC00;fill:color(display-p3 0.9020 0.8000 0.0000);fill-opacity:1;"/>
<path d="M7.13614 79.129H0.603882V85.6613H7.13614V79.129Z" fill="#E6CC00" style="fill:#E6CC00;fill:color(display-p3 0.9020 0.8000 0.0000);fill-opacity:1;"/>
<path d="M7.13614 85.6613H0.603882V92.1936H7.13614V85.6613Z" fill="#E6CC00" style="fill:#E6CC00;fill:color(display-p3 0.9020 0.8000 0.0000);fill-opacity:1;"/>
<path d="M7.13614 92.1935H0.603882V98.7258H7.13614V92.1935Z" fill="#E6CC00" style="fill:#E6CC00;fill:color(display-p3 0.9020 0.8000 0.0000);fill-opacity:1;"/>
<path d="M59.3942 33.4032H52.8619V39.9355H59.3942V33.4032Z" fill="#E6CC00" style="fill:#E6CC00;fill:color(display-p3 0.9020 0.8000 0.0000);fill-opacity:1;"/>
<path d="M59.3942 39.9355H52.8619V46.4677H59.3942V39.9355Z" fill="#E6CC00" style="fill:#E6CC00;fill:color(display-p3 0.9020 0.8000 0.0000);fill-opacity:1;"/>
<path d="M59.3942 46.4678H52.8619V53H59.3942V46.4678Z" fill="#E6CC00" style="fill:#E6CC00;fill:color(display-p3 0.9020 0.8000 0.0000);fill-opacity:1;"/>
<path d="M59.3942 53H52.8619V59.5323H59.3942V53Z" fill="#E6CC00" style="fill:#E6CC00;fill:color(display-p3 0.9020 0.8000 0.0000);fill-opacity:1;"/>
<path d="M59.3942 59.5322H52.8619V66.0645H59.3942V59.5322Z" fill="#E6CC00" style="fill:#E6CC00;fill:color(display-p3 0.9020 0.8000 0.0000);fill-opacity:1;"/>
<path d="M59.3942 66.0645H52.8619V72.5968H59.3942V66.0645Z" fill="#E6CC00" style="fill:#E6CC00;fill:color(display-p3 0.9020 0.8000 0.0000);fill-opacity:1;"/>
<path d="M59.3942 72.5968H52.8619V79.1291H59.3942V72.5968Z" fill="#E6CC00" style="fill:#E6CC00;fill:color(display-p3 0.9020 0.8000 0.0000);fill-opacity:1;"/>
<path d="M59.3942 79.129H52.8619V85.6613H59.3942V79.129Z" fill="#E6CC00" style="fill:#E6CC00;fill:color(display-p3 0.9020 0.8000 0.0000);fill-opacity:1;"/>
<path d="M59.3942 85.6613H52.8619V92.1936H59.3942V85.6613Z" fill="#E6CC00" style="fill:#E6CC00;fill:color(display-p3 0.9020 0.8000 0.0000);fill-opacity:1;"/>
<path d="M59.3942 92.1935H52.8619V98.7258H59.3942V92.1935Z" fill="#E6CC00" style="fill:#E6CC00;fill:color(display-p3 0.9020 0.8000 0.0000);fill-opacity:1;"/>
<path d="M26.7348 26.871H20.2026V33.4032H26.7348V26.871Z" fill="#E6CC00" style="fill:#E6CC00;fill:color(display-p3 0.9020 0.8000 0.0000);fill-opacity:1;"/>
<path d="M33.2652 26.871H26.7329V33.4032H33.2652V26.871Z" fill="#E6CC00" style="fill:#E6CC00;fill:color(display-p3 0.9020 0.8000 0.0000);fill-opacity:1;"/>
<path d="M33.2652 46.4678H26.7329V53H33.2652V46.4678Z" fill="#E6CC00" style="fill:#E6CC00;fill:color(display-p3 0.9020 0.8000 0.0000);fill-opacity:1;"/>
<path d="M33.2652 53H26.7329V59.5323H33.2652V53Z" fill="#E6CC00" style="fill:#E6CC00;fill:color(display-p3 0.9020 0.8000 0.0000);fill-opacity:1;"/>
<path d="M33.2652 59.5322H26.7329V66.0645H33.2652V59.5322Z" fill="#E6CC00" style="fill:#E6CC00;fill:color(display-p3 0.9020 0.8000 0.0000);fill-opacity:1;"/>
<path d="M39.7993 53H33.2671V59.5323H39.7993V53Z" fill="#E6CC00" style="fill:#E6CC00;fill:color(display-p3 0.9020 0.8000 0.0000);fill-opacity:1;"/>
<path d="M26.7348 53H20.2026V59.5323H26.7348V53Z" fill="#E6CC00" style="fill:#E6CC00;fill:color(display-p3 0.9020 0.8000 0.0000);fill-opacity:1;"/>
<path d="M39.7993 26.871H33.2671V33.4032H39.7993V26.871Z" fill="#E6CC00" style="fill:#E6CC00;fill:color(display-p3 0.9020 0.8000 0.0000);fill-opacity:1;"/>
<path d="M46.3297 26.871H39.7974V33.4032H46.3297V26.871Z" fill="#E6CC00" style="fill:#E6CC00;fill:color(display-p3 0.9020 0.8000 0.0000);fill-opacity:1;"/>
<path d="M59.3942 26.871H52.8619V33.4032H59.3942V26.871Z" fill="#E6CC00" style="fill:#E6CC00;fill:color(display-p3 0.9020 0.8000 0.0000);fill-opacity:1;"/>
</svg>
