<svg width="10" height="10" viewBox="0 0 10 10" fill="none" xmlns="http://www.w3.org/2000/svg">
<path d="M0.5 4.5H4.5V0.5H0.5V4.5ZM1.5 1.5H3.5V3.5H1.5V1.5ZM0.5 9.5H4.5V5.5H0.5V9.5ZM1.5 6.5H3.5V8.5H1.5V6.5ZM5.5 0.5V4.5H9.5V0.5H5.5ZM8.5 3.5H6.5V1.5H8.5V3.5ZM8.5 8.5H9.5V9.5H8.5V8.5ZM5.5 5.5H6.5V6.5H5.5V5.5ZM6.5 6.5H7.5V7.5H6.5V6.5ZM5.5 7.5H6.5V8.5H5.5V7.5ZM6.5 8.5H7.5V9.5H6.5V8.5ZM7.5 7.5H8.5V8.5H7.5V7.5ZM7.5 5.5H8.5V6.5H7.5V5.5ZM8.5 6.5H9.5V7.5H8.5V6.5Z" fill="white" style="fill:white;fill-opacity:1;"/>
</svg>
