<svg width="13" height="13" viewBox="0 0 13 13" fill="none" xmlns="http://www.w3.org/2000/svg">
<path d="M11.2272 11.8182H10.6363V11.2273H10.0454V10.6364H9.45449V10.0455H8.86358V9.45461H8.27267V8.8637H7.68176V8.27279H6.49994V8.8637H3.5454V8.27279H2.36358V7.68189H1.77267V6.50007H1.18176V3.54552H1.77267V2.3637H2.36358V1.77279H3.5454V1.18188H6.49994V1.77279H7.68176V2.3637H8.27267V3.54552H8.86358V6.50007H8.27267V7.68189H8.86358V8.27279H9.45449V8.8637H10.0454V9.45461H10.6363V10.0455H11.2272V10.6364H11.8181V11.2273H11.2272M6.49994 7.68189V7.09098H7.09085V6.50007H7.68176V3.54552H7.09085V2.95461H6.49994V2.3637H3.5454V2.95461H2.95449V3.54552H2.36358V6.50007H2.95449V7.09098H3.5454V7.68189H6.49994Z" fill="#F7F7F7" fill-opacity="0.65" style="fill:#F7F7F7;fill:color(display-p3 0.9686 0.9686 0.9686);fill-opacity:0.65;"/>
</svg>
