<svg width="11" height="11" viewBox="0 0 11 11" fill="none" xmlns="http://www.w3.org/2000/svg">
<path d="M5.5 4.4C6.08348 4.4 6.64305 4.16822 7.05563 3.75564C7.46822 3.34305 7.7 2.78348 7.7 2.2C7.7 1.61652 7.46822 1.05695 7.05563 0.644365C6.64305 0.231785 6.08348 0 5.5 0C4.91652 0 4.35695 0.231785 3.94437 0.644365C3.53178 1.05695 3.3 1.61652 3.3 2.2C3.3 2.78348 3.53178 3.34305 3.94437 3.75564C4.35695 4.16822 4.91652 4.4 5.5 4.4ZM1.925 6.05C2.28967 6.05 2.63941 5.90513 2.89727 5.64727C3.15513 5.38941 3.3 5.03967 3.3 4.675C3.3 4.31033 3.15513 3.96059 2.89727 3.70273C2.63941 3.44487 2.28967 3.3 1.925 3.3C1.56033 3.3 1.21059 3.44487 0.952728 3.70273C0.694866 3.96059 0.55 4.31033 0.55 4.675C0.55 5.03967 0.694866 5.38941 0.952728 5.64727C1.21059 5.90513 1.56033 6.05 1.925 6.05ZM10.45 4.675C10.45 5.03967 10.3051 5.38941 10.0473 5.64727C9.78941 5.90513 9.43967 6.05 9.075 6.05C8.71033 6.05 8.36059 5.90513 8.10273 5.64727C7.84487 5.38941 7.7 5.03967 7.7 4.675C7.7 4.31033 7.84487 3.96059 8.10273 3.70273C8.36059 3.44487 8.71033 3.3 9.075 3.3C9.43967 3.3 9.78941 3.44487 10.0473 3.70273C10.3051 3.96059 10.45 4.31033 10.45 4.675ZM5.5 4.95C6.22935 4.95 6.92882 5.23973 7.44454 5.75546C7.96027 6.27118 8.25 6.97065 8.25 7.7V11H2.75V7.7C2.75 6.97065 3.03973 6.27118 3.55546 5.75546C4.07118 5.23973 4.77065 4.95 5.5 4.95ZM1.65 7.7C1.65 7.31885 1.705 6.9509 1.8084 6.6033L1.7149 6.611C1.24348 6.66276 0.807765 6.88672 0.491294 7.23993C0.174824 7.59315 -0.000123067 8.05075 6.49536e-08 8.525V11H1.65V7.7ZM11 11V8.525C11.0001 8.0346 10.813 7.56267 10.4769 7.20554C10.1408 6.84841 9.6811 6.633 9.1916 6.6033C9.29445 6.9509 9.35 7.31885 9.35 7.7V11H11Z" fill="#F7F7F7" style="fill:#F7F7F7;fill:color(display-p3 0.9686 0.9686 0.9686);fill-opacity:1;"/>
</svg>
